<svg width="1207" height="749" viewBox="0 0 1207 749" fill="none" xmlns="http://www.w3.org/2000/svg">
<path d="M1183.72 464.134C1187.93 461.702 1192.3 460.178 1196.82 459.563C1201.38 459.003 1205.82 459.281 1210.16 460.397C1214.5 461.512 1218.49 463.424 1222.12 466.13C1225.73 468.924 1228.75 472.428 1231.18 476.64C1233.58 480.797 1235.07 485.109 1235.66 489.575C1236.18 494.074 1235.86 498.438 1234.68 502.666C1233.47 506.982 1231.48 510.944 1228.68 514.553C1225.89 518.161 1222.38 521.181 1218.17 523.613C1215.23 525.309 1212.14 526.542 1208.89 527.31C1205.58 528.111 1202.36 528.419 1199.22 528.234C1196.09 528.05 1193.24 527.404 1190.68 526.296L1192.99 516.867C1195.58 517.514 1198.07 517.852 1200.45 517.881C1202.78 517.942 1205.02 517.722 1207.16 517.22C1209.31 516.719 1211.3 515.94 1213.13 514.884C1216.13 513.156 1218.59 511.029 1220.53 508.504C1222.42 506.011 1223.79 503.262 1224.64 500.258C1225.44 497.285 1225.63 494.22 1225.21 491.063C1224.82 487.961 1223.76 484.913 1222.03 481.92C1220.37 479.038 1218.23 476.614 1215.62 474.649C1213.04 472.74 1210.22 471.375 1207.16 470.555C1204.04 469.767 1200.89 469.555 1197.7 469.918C1194.46 470.314 1191.39 471.344 1188.51 473.008C1186.35 474.256 1184.48 475.745 1182.89 477.474C1181.33 479.259 1180.14 481.166 1179.32 483.194C1178.49 485.222 1178.1 487.224 1178.13 489.2C1178.19 491.232 1178.72 493.107 1179.71 494.826L1180.67 496.488L1178.75 496.044L1196.55 485.772L1201.68 494.668L1175.91 509.548C1175.45 509.003 1175.01 508.441 1174.6 507.863C1174.23 507.341 1173.88 506.803 1173.56 506.248C1173.22 505.782 1172.9 505.299 1172.61 504.8C1170.41 500.976 1169.05 497.1 1168.56 493.172C1168.1 489.301 1168.4 485.541 1169.48 481.892C1170.49 478.276 1172.21 474.918 1174.63 471.819C1177.03 468.808 1180.06 466.246 1183.72 464.134ZM1131.46 494.308C1135.06 492.228 1138.93 491.322 1143.08 491.589C1147.17 491.888 1151.09 493.244 1154.85 495.657C1158.61 498.069 1161.73 501.437 1164.23 505.76C1166.76 510.139 1168.11 514.531 1168.29 518.935C1168.45 523.428 1167.56 527.524 1165.63 531.224C1163.65 534.956 1160.74 537.926 1156.92 540.134C1154.65 541.446 1152.37 542.313 1150.11 542.736C1147.84 543.159 1145.66 543.161 1143.57 542.741C1141.46 542.409 1139.51 541.724 1137.73 540.684C1135.89 539.676 1134.35 538.349 1133.1 536.703L1135.4 536.264L1141.92 547.571L1133.28 552.563L1108.08 508.916L1116.72 503.924L1122.72 514.316L1121.06 516.05C1120.53 514.361 1120.38 512.493 1120.6 510.443C1120.8 508.482 1121.38 506.483 1122.35 504.446C1123.26 502.442 1124.49 500.547 1126.05 498.762C1127.55 497.009 1129.35 495.524 1131.46 494.308ZM1133.77 503.502C1131.17 505.006 1129.24 506.972 1127.98 509.398C1126.72 511.825 1126.17 514.467 1126.35 517.324C1126.49 520.269 1127.4 523.182 1129.06 526.064C1130.7 528.891 1132.73 531.077 1135.18 532.622C1137.57 534.199 1140.13 535.049 1142.86 535.171C1145.59 535.294 1148.26 534.604 1150.86 533.1C1153.41 531.628 1155.32 529.678 1156.57 527.251C1157.78 524.857 1158.32 522.215 1158.21 519.326C1158.03 516.469 1157.13 513.627 1155.5 510.8C1153.84 507.918 1151.79 505.661 1149.37 504.028C1146.93 502.483 1144.37 501.633 1141.69 501.478C1138.96 501.356 1136.32 502.03 1133.77 503.502ZM1095.95 515.915L1131.47 577.437L1122.91 582.381L1087.39 520.859L1095.95 515.915ZM1075.09 527.961L1110.61 589.484L1102.05 594.428L1066.53 532.905L1075.09 527.961ZM1034.35 550.372C1038.84 547.78 1043.38 546.418 1047.96 546.287C1052.51 546.243 1056.75 547.307 1060.66 549.481C1064.52 551.687 1067.7 554.951 1070.2 559.274C1072.18 562.711 1073.44 566.162 1073.96 569.629C1074.48 573.095 1074.37 576.414 1073.61 579.585C1072.83 582.843 1071.4 585.81 1069.33 588.487C1067.23 591.251 1064.57 593.561 1061.36 595.417C1058.53 597.049 1055.58 598.015 1052.5 598.314C1049.45 598.669 1046.5 598.416 1043.64 597.556C1040.72 596.727 1038.04 595.283 1035.59 593.222C1033.12 591.248 1031.03 588.721 1029.33 585.641L1027.3 581.934L1062.97 561.342L1068.82 567.056L1038.64 584.48L1039.07 582.346L1040.22 584.342C1041.44 586.075 1043 587.358 1044.88 588.191C1046.77 589.024 1048.75 589.392 1050.84 589.296C1052.93 589.199 1054.91 588.607 1056.8 587.519C1059.79 585.791 1061.98 583.753 1063.35 581.405C1064.76 579.112 1065.36 576.554 1065.13 573.729C1064.94 570.959 1063.91 567.967 1062.05 564.752C1060.29 561.704 1058.12 559.411 1055.53 557.875C1052.98 556.394 1050.19 555.716 1047.15 555.84C1044.12 555.965 1041.08 556.907 1038.03 558.667C1035.87 559.915 1034.08 561.427 1032.67 563.204C1031.2 565.012 1029.93 567.483 1028.86 570.615L1021.03 567.042C1021.59 564.944 1022.56 562.836 1023.92 560.719C1025.23 558.633 1026.79 556.661 1028.6 554.804C1030.38 553.033 1032.3 551.556 1034.35 550.372ZM1006.49 567.569L1031.69 611.216L1023.04 616.208L1015.12 602.49L1017.87 605.336C1018.48 607.794 1018.56 610.298 1018.11 612.848C1017.6 615.431 1016.7 617.765 1015.39 619.85C1014.02 621.968 1012.32 623.619 1010.27 624.803C1009.32 625.347 1008.39 625.776 1007.46 626.089C1006.48 626.435 1005.67 626.641 1005.05 626.707L1001.92 616.1C1002.74 615.993 1003.62 615.783 1004.55 615.469C1005.45 615.243 1006.29 614.906 1007.07 614.458C1008.56 613.594 1009.83 612.457 1010.86 611.047C1011.87 609.725 1012.6 608.233 1013.04 606.572C1013.47 604.998 1013.58 603.343 1013.39 601.605C1013.23 599.923 1012.69 598.278 1011.76 596.671L997.841 572.561L1006.49 567.569ZM954.6 572.03L957.547 597.487L953.528 590.718L1003.73 627.36L993.75 633.12L961.587 608.9C960.99 608.506 960.161 607.839 959.101 606.899C958.073 606.014 957.101 605.098 956.184 604.149L958.057 602.402C958.286 603.822 958.542 605.226 958.826 606.614C959.055 608.034 959.311 609.438 959.595 610.826L966.397 648.912L956.254 654.768L949.012 600.752L945.371 577.358L954.6 572.03ZM872.683 643.712C876.895 641.28 881.262 639.757 885.784 639.141C890.338 638.581 894.785 638.859 899.124 639.975C903.464 641.091 907.449 643.002 911.081 645.708C914.69 648.503 917.71 652.006 920.142 656.218C922.542 660.375 924.034 664.687 924.617 669.153C925.145 673.652 924.819 678.016 923.639 682.244C922.436 686.56 920.437 690.522 917.643 694.131C914.849 697.739 911.346 700.759 907.134 703.191C904.196 704.887 901.102 706.12 897.85 706.888C894.544 707.689 891.322 707.997 888.186 707.813C885.049 707.628 882.2 706.982 879.639 705.874L881.955 696.445C884.546 697.092 887.032 697.43 889.414 697.459C891.74 697.521 893.977 697.3 896.127 696.798C898.276 696.297 900.265 695.518 902.094 694.462C905.087 692.734 907.554 690.607 909.496 688.082C911.382 685.589 912.751 682.84 913.603 679.836C914.399 676.863 914.588 673.798 914.169 670.641C913.782 667.539 912.725 664.491 910.997 661.498C909.333 658.616 907.194 656.192 904.582 654.227C902.001 652.318 899.181 650.953 896.121 650.133C893.006 649.345 889.853 649.133 886.664 649.497C883.419 649.892 880.355 650.922 877.473 652.586C875.312 653.834 873.437 655.323 871.849 657.052C870.293 658.837 869.103 660.744 868.278 662.772C867.454 664.8 867.058 666.802 867.09 668.779C867.155 670.81 867.683 672.686 868.675 674.404L869.635 676.066L867.716 675.623L885.508 665.351L890.644 674.246L864.871 689.126C864.408 688.581 863.973 688.019 863.566 687.441C863.19 686.919 862.842 686.381 862.522 685.827C862.179 685.36 861.863 684.877 861.575 684.378C859.367 680.554 858.016 676.678 857.523 672.751C857.061 668.879 857.366 665.119 858.437 661.47C859.453 657.854 861.172 654.496 863.596 651.397C865.995 648.386 869.024 645.824 872.683 643.712ZM820.42 673.886C824.022 671.806 827.896 670.9 832.041 671.167C836.131 671.467 840.054 672.822 843.812 675.235C847.57 677.647 850.696 681.015 853.192 685.338C855.72 689.717 857.074 694.109 857.252 698.514C857.407 703.006 856.52 707.102 854.592 710.802C852.608 714.534 849.704 717.504 845.879 719.712C843.607 721.024 841.336 721.891 839.068 722.314C836.8 722.737 834.62 722.739 832.531 722.319C830.418 721.988 828.47 721.302 826.687 720.262C824.849 719.254 823.307 717.927 822.061 716.281L824.357 715.843L830.885 727.149L822.239 732.141L797.039 688.494L805.685 683.502L811.685 693.894L810.026 695.628C809.495 693.939 809.339 692.071 809.56 690.022C809.758 688.06 810.341 686.061 811.308 684.024C812.22 682.02 813.454 680.125 815.01 678.34C816.51 676.587 818.313 675.102 820.42 673.886ZM822.735 683.08C820.13 684.584 818.198 686.55 816.938 688.977C815.679 691.403 815.135 694.045 815.307 696.902C815.455 699.847 816.361 702.76 818.025 705.642C819.657 708.469 821.695 710.655 824.139 712.2C826.527 713.777 829.087 714.627 831.818 714.75C834.55 714.872 837.218 714.182 839.823 712.678C842.372 711.206 844.277 709.256 845.536 706.83C846.74 704.435 847.284 701.793 847.168 698.904C846.997 696.047 846.095 693.205 844.463 690.378C842.799 687.496 840.757 685.239 838.336 683.606C835.892 682.061 833.332 681.211 830.656 681.057C827.925 680.934 825.284 681.608 822.735 683.08ZM784.916 695.493L820.436 757.015L811.873 761.959L776.353 700.437L784.916 695.493ZM764.05 707.54L799.57 769.062L791.007 774.006L755.487 712.484L764.05 707.54ZM723.314 729.95C727.803 727.358 732.338 725.996 736.918 725.865C741.474 725.821 745.71 726.886 749.625 729.059C753.485 731.265 756.663 734.529 759.159 738.852C761.143 742.289 762.397 745.74 762.921 749.207C763.444 752.674 763.328 755.992 762.572 759.163C761.793 762.421 760.365 765.389 758.289 768.065C756.19 770.829 753.533 773.139 750.318 774.995C747.491 776.627 744.539 777.593 741.46 777.892C738.413 778.247 735.459 777.994 732.598 777.134C729.68 776.305 726.999 774.861 724.553 772.8C722.083 770.826 719.996 768.299 718.291 765.219L716.262 761.513L751.929 740.921L757.777 746.634L727.598 764.058L728.029 761.925L729.181 763.92C730.403 765.653 731.957 766.936 733.842 767.769C735.727 768.602 737.713 768.97 739.8 768.874C741.888 768.777 743.874 768.185 745.758 767.097C748.751 765.369 750.937 763.331 752.316 760.983C753.727 758.69 754.318 756.132 754.092 753.307C753.897 750.537 752.871 747.545 751.015 744.33C749.255 741.282 747.082 738.989 744.495 737.453C741.94 735.972 739.147 735.294 736.115 735.418C733.083 735.543 730.043 736.485 726.995 738.245C724.833 739.493 723.046 741.006 721.633 742.782C720.164 744.591 718.893 747.061 717.819 750.194L709.992 746.62C710.555 744.522 711.518 742.414 712.881 740.297C714.19 738.211 715.749 736.239 717.559 734.382C719.345 732.611 721.263 731.134 723.314 729.95ZM695.449 747.147L720.649 790.794L712.003 795.786L704.083 782.068L706.834 784.914C707.44 787.372 707.519 789.876 707.07 792.427C706.565 795.009 705.659 797.343 704.35 799.428C702.986 801.546 701.279 803.197 699.228 804.381C698.286 804.925 697.351 805.354 696.424 805.667C695.441 806.013 694.636 806.219 694.009 806.285L690.878 795.678C691.703 795.571 692.58 795.361 693.507 795.047C694.411 794.821 695.251 794.484 696.027 794.036C697.523 793.172 698.788 792.035 699.822 790.625C700.832 789.303 701.56 787.811 702.005 786.15C702.427 784.576 702.542 782.921 702.352 781.183C702.194 779.501 701.651 777.856 700.723 776.249L686.803 752.139L695.449 747.147ZM643.561 751.608L646.509 777.065L642.49 770.296L692.688 806.938L682.711 812.698L650.548 788.478C649.951 788.084 649.123 787.417 648.063 786.477C647.035 785.592 646.062 784.676 645.145 783.727L647.019 781.981C647.247 783.401 647.504 784.804 647.788 786.192C648.016 787.612 648.273 789.016 648.557 790.404L655.359 828.49L645.216 834.346L637.974 780.33L634.333 756.936L643.561 751.608Z" fill="#FFE0C4"/>
<path d="M105.951 975.789C101.739 978.221 97.3718 979.744 92.8497 980.36C88.2956 980.92 83.849 980.642 79.5097 979.526C75.1704 978.41 71.1848 976.499 67.5529 973.793C63.9444 970.998 60.9241 967.495 58.4921 963.283C56.0921 959.126 54.6004 954.814 54.0169 950.347C53.4888 945.849 53.8147 941.485 54.9945 937.257C56.1978 932.941 58.1965 928.979 60.9906 925.37C63.7847 921.762 67.2879 918.742 71.5003 916.31C74.4378 914.614 77.5322 913.381 80.7835 912.613C84.0902 911.812 87.3118 911.504 90.4482 911.688C93.5847 911.873 96.4335 912.519 98.9945 913.627L96.6788 923.056C94.0881 922.409 91.6019 922.071 89.2202 922.042C86.8941 921.98 84.6564 922.201 82.5074 922.702C80.3583 923.204 78.3693 923.983 76.5403 925.039C73.5473 926.767 71.08 928.894 69.1384 931.419C67.2523 933.912 65.8832 936.661 65.0313 939.665C64.2349 942.638 64.0461 945.703 64.465 948.86C64.8519 951.962 65.9094 955.01 67.6374 958.003C69.3014 960.885 71.4396 963.309 74.0521 965.274C76.6326 967.183 79.4529 968.548 82.5127 969.368C85.6281 970.156 88.7805 970.368 91.9701 970.004C95.2151 969.609 98.2787 968.579 101.161 966.915C103.322 965.667 105.197 964.178 106.785 962.449C108.341 960.664 109.531 958.757 110.356 956.729C111.18 954.701 111.576 952.699 111.543 950.722C111.479 948.691 110.951 946.815 109.959 945.097L108.999 943.434L110.918 943.878L93.126 954.15L87.99 945.255L113.763 930.375C114.226 930.92 114.661 931.482 115.068 932.06C115.444 932.582 115.791 933.12 116.111 933.674C116.455 934.141 116.771 934.624 117.059 935.123C119.267 938.947 120.617 942.823 121.111 946.75C121.573 950.622 121.268 954.382 120.197 958.031C119.181 961.647 117.462 965.005 115.038 968.104C112.638 971.115 109.609 973.677 105.951 975.789ZM158.214 945.615C154.612 947.695 150.738 948.601 146.593 948.334C142.503 948.034 138.58 946.679 134.822 944.266C131.064 941.854 127.938 938.486 125.442 934.163C122.914 929.784 121.56 925.392 121.382 920.987C121.227 916.495 122.114 912.399 124.042 908.699C126.026 904.967 128.93 901.997 132.755 899.789C135.027 898.477 137.297 897.61 139.566 897.187C141.834 896.764 144.013 896.762 146.103 897.181C148.216 897.513 150.164 898.199 151.947 899.239C153.785 900.247 155.327 901.574 156.573 903.22L154.277 903.658L147.749 892.352L156.395 887.36L181.595 931.007L172.949 935.999L166.949 925.607L168.608 923.873C169.139 925.562 169.295 927.43 169.073 929.479C168.876 931.441 168.293 933.44 167.326 935.477C166.414 937.481 165.18 939.376 163.624 941.161C162.124 942.914 160.32 944.399 158.214 945.615ZM155.899 936.421C158.504 934.917 160.436 932.951 161.696 930.524C162.955 928.098 163.499 925.456 163.327 922.599C163.179 919.654 162.273 916.741 160.609 913.859C158.977 911.032 156.939 908.846 154.495 907.301C152.107 905.724 149.547 904.874 146.816 904.751C144.084 904.629 141.416 905.319 138.811 906.823C136.261 908.295 134.357 910.245 133.098 912.671C131.894 915.066 131.35 917.708 131.466 920.597C131.637 923.454 132.539 926.296 134.171 929.123C135.835 932.005 137.877 934.262 140.298 935.895C142.742 937.44 145.302 938.29 147.978 938.444C150.709 938.567 153.349 937.893 155.899 936.421ZM193.718 924.008L158.198 862.486L166.761 857.542L202.281 919.064L193.718 924.008ZM214.583 911.961L179.063 850.439L187.627 845.495L223.147 907.017L214.583 911.961ZM255.32 889.551C250.83 892.143 246.296 893.504 241.716 893.636C237.16 893.68 232.924 892.615 229.008 890.442C225.149 888.236 221.971 884.972 219.475 880.649C217.491 877.212 216.237 873.761 215.713 870.294C215.19 866.827 215.306 863.509 216.062 860.338C216.841 857.08 218.269 854.112 220.345 851.436C222.444 848.672 225.101 846.362 228.316 844.506C231.142 842.874 234.095 841.908 237.174 841.609C240.221 841.254 243.175 841.507 246.036 842.367C248.953 843.196 251.635 844.64 254.081 846.701C256.551 848.675 258.638 851.202 260.343 854.282L262.372 857.988L226.705 878.58L220.857 872.867L251.036 855.443L250.605 857.576L249.453 855.581C248.231 853.848 246.677 852.565 244.792 851.732C242.907 850.899 240.921 850.531 238.833 850.627C236.746 850.724 234.76 851.316 232.876 852.404C229.883 854.132 227.697 856.17 226.318 858.518C224.907 860.811 224.315 863.369 224.542 866.194C224.737 868.964 225.763 871.956 227.619 875.171C229.379 878.219 231.552 880.512 234.139 882.048C236.694 883.529 239.487 884.207 242.519 884.083C245.551 883.958 248.591 883.016 251.639 881.256C253.801 880.008 255.588 878.495 257.001 876.719C258.47 874.91 259.741 872.44 260.814 869.307L268.642 872.88C268.079 874.979 267.116 877.087 265.752 879.204C264.444 881.29 262.885 883.262 261.075 885.119C259.289 886.89 257.371 888.367 255.32 889.551ZM283.185 872.354L257.985 828.707L266.631 823.715L274.551 837.432L271.8 834.587C271.194 832.129 271.115 829.625 271.564 827.074C272.069 824.492 272.975 822.158 274.284 820.073C275.647 817.955 277.355 816.304 279.406 815.12C280.348 814.576 281.283 814.147 282.21 813.834C283.193 813.488 283.998 813.282 284.624 813.215L287.756 823.823C286.931 823.93 286.054 824.14 285.127 824.454C284.223 824.68 283.383 825.017 282.607 825.465C281.111 826.329 279.846 827.466 278.812 828.876C277.802 830.198 277.074 831.69 276.629 833.351C276.207 834.925 276.092 836.58 276.282 838.318C276.44 840 276.983 841.645 277.911 843.252L291.831 867.362L283.185 872.354ZM335.073 867.893L332.125 842.436L336.144 849.205L285.946 812.563L295.923 806.803L328.085 831.023C328.683 831.417 329.511 832.084 330.571 833.024C331.599 833.909 332.572 834.825 333.489 835.774L331.615 837.52C331.387 836.1 331.13 834.696 330.846 833.309C330.618 831.889 330.361 830.485 330.077 829.097L323.275 791.011L333.418 785.155L340.66 839.171L344.301 862.565L335.073 867.893ZM440.291 782.757C436.079 785.189 431.712 786.713 427.19 787.329C422.636 787.889 418.189 787.611 413.85 786.495C409.51 785.379 405.525 783.468 401.893 780.761C398.284 777.967 395.264 774.464 392.832 770.252C390.432 766.095 388.94 761.783 388.357 757.316C387.829 752.818 388.155 748.454 389.334 744.226C390.538 739.91 392.536 735.948 395.33 732.339C398.125 728.731 401.628 725.71 405.84 723.278C408.778 721.582 411.872 720.35 415.123 719.581C418.43 718.781 421.652 718.473 424.788 718.657C427.925 718.842 430.773 719.488 433.334 720.596L431.019 730.025C428.428 729.378 425.942 729.039 423.56 729.01C421.234 728.949 418.996 729.17 416.847 729.671C414.698 730.173 412.709 730.952 410.88 732.008C407.887 733.736 405.42 735.862 403.478 738.388C401.592 740.881 400.223 743.629 399.371 746.634C398.575 749.606 398.386 752.671 398.805 755.829C399.192 758.931 400.249 761.979 401.977 764.972C403.641 767.854 405.78 770.277 408.392 772.242C410.973 774.152 413.793 775.517 416.853 776.337C419.968 777.124 423.12 777.337 426.31 776.973C429.555 776.578 432.619 775.548 435.501 773.884C437.662 772.636 439.537 771.147 441.125 769.417C442.681 767.632 443.871 765.726 444.696 763.698C445.52 761.67 445.916 759.668 445.883 757.691C445.819 755.659 445.29 753.784 444.298 752.066L443.338 750.403L445.258 750.847L427.466 761.119L422.33 752.223L448.103 737.343C448.566 737.889 449.001 738.451 449.408 739.028C449.784 739.551 450.131 740.089 450.451 740.643C450.795 741.11 451.11 741.593 451.398 742.092C453.606 745.916 454.957 749.792 455.451 753.719C455.913 757.591 455.608 761.351 454.537 765C453.521 768.616 451.801 771.974 449.378 775.072C446.978 778.084 443.949 780.645 440.291 782.757ZM492.554 752.583C488.952 754.663 485.078 755.57 480.933 755.302C476.843 755.003 472.92 753.647 469.162 751.235C465.404 748.823 462.278 745.455 459.782 741.132C457.254 736.753 455.9 732.361 455.722 727.956C455.567 723.464 456.454 719.368 458.382 715.668C460.366 711.936 463.27 708.966 467.094 706.758C469.367 705.446 471.637 704.578 473.906 704.156C476.174 703.733 478.353 703.731 480.443 704.15C482.556 704.482 484.504 705.168 486.287 706.208C488.125 707.216 489.667 708.543 490.913 710.188L488.617 710.627L482.089 699.32L490.735 694.328L515.935 737.976L507.289 742.968L501.289 732.576L502.948 730.842C503.479 732.53 503.634 734.399 503.413 736.448C503.216 738.41 502.633 740.409 501.666 742.445C500.754 744.45 499.52 746.345 497.964 748.13C496.464 749.883 494.66 751.367 492.554 752.583ZM490.239 743.389C492.844 741.885 494.776 739.92 496.035 737.493C497.295 735.066 497.839 732.424 497.667 729.567C497.519 726.623 496.613 723.71 494.949 720.828C493.317 718.001 491.279 715.815 488.835 714.27C486.447 712.693 483.887 711.843 481.155 711.72C478.424 711.597 475.756 712.288 473.151 713.792C470.601 715.264 468.697 717.213 467.438 719.64C466.234 722.035 465.69 724.677 465.806 727.566C465.977 730.423 466.879 733.265 468.511 736.092C470.175 738.974 472.217 741.231 474.638 742.863C477.082 744.408 479.642 745.258 482.318 745.413C485.049 745.536 487.689 744.861 490.239 743.389ZM528.058 730.977L492.538 669.455L501.101 664.511L536.621 726.033L528.058 730.977ZM548.923 718.93L513.403 657.408L521.967 652.464L557.487 713.986L548.923 718.93ZM589.66 696.519C585.17 699.111 580.636 700.473 576.056 700.605C571.5 700.649 567.264 699.584 563.348 697.411C559.488 695.205 556.311 691.941 553.815 687.617C551.831 684.181 550.577 680.73 550.053 677.263C549.53 673.796 549.646 670.477 550.402 667.307C551.181 664.048 552.609 661.081 554.685 658.405C556.784 655.641 559.441 653.331 562.656 651.475C565.482 649.843 568.435 648.877 571.514 648.578C574.561 648.223 577.515 648.475 580.376 649.336C583.293 650.164 585.975 651.609 588.421 653.67C590.891 655.644 592.978 658.171 594.683 661.251L596.711 664.957L561.045 685.549L555.197 679.836L585.376 662.412L584.945 664.545L583.793 662.55C582.571 660.817 581.017 659.534 579.132 658.701C577.247 657.868 575.261 657.499 573.173 657.596C571.086 657.693 569.1 658.285 567.216 659.373C564.223 661.101 562.037 663.139 560.658 665.487C559.247 667.779 558.655 670.338 558.882 673.163C559.077 675.933 560.103 678.925 561.959 682.14C563.719 685.188 565.892 687.48 568.479 689.017C571.034 690.498 573.827 691.176 576.859 691.051C579.891 690.927 582.931 689.984 585.979 688.224C588.141 686.976 589.928 685.464 591.341 683.688C592.81 681.879 594.081 679.409 595.154 676.276L602.982 679.849C602.419 681.947 601.456 684.055 600.092 686.173C598.784 688.259 597.225 690.23 595.415 692.088C593.629 693.858 591.711 695.335 589.66 696.519ZM617.525 679.323L592.325 635.675L600.971 630.683L608.891 644.401L606.14 641.556C605.534 639.098 605.455 636.593 605.904 634.043C606.409 631.461 607.315 629.127 608.623 627.041C609.987 624.924 611.695 623.273 613.745 622.089C614.688 621.545 615.622 621.116 616.55 620.802C617.533 620.457 618.337 620.251 618.964 620.184L622.096 630.792C621.27 630.899 620.394 631.109 619.467 631.423C618.563 631.649 617.723 631.986 616.947 632.434C615.45 633.298 614.185 634.435 613.152 635.845C612.142 637.167 611.414 638.659 610.969 640.32C610.547 641.893 610.431 643.549 610.622 645.287C610.78 646.969 611.323 648.614 612.251 650.221L626.171 674.331L617.525 679.323ZM669.412 674.862L666.465 649.405L670.484 656.174L620.286 619.532L630.263 613.772L662.425 637.991C663.022 638.386 663.851 639.053 664.911 639.993C665.939 640.877 666.912 641.794 667.829 642.742L665.955 644.489C665.726 643.069 665.47 641.665 665.186 640.277C664.958 638.857 664.701 637.453 664.417 636.065L657.615 597.98L667.758 592.124L675 646.14L678.641 669.534L669.412 674.862ZM751.33 603.179C747.117 605.611 742.75 607.135 738.228 607.751C733.674 608.311 729.227 608.033 724.888 606.917C720.549 605.801 716.563 603.89 712.931 601.183C709.323 598.389 706.302 594.886 703.87 590.674C701.47 586.517 699.979 582.205 699.395 577.738C698.867 573.239 699.193 568.876 700.373 564.647C701.576 560.332 703.575 556.369 706.369 552.761C709.163 549.152 712.666 546.132 716.879 543.7C719.816 542.004 722.911 540.772 726.162 540.003C729.469 539.203 732.69 538.895 735.827 539.079C738.963 539.264 741.812 539.91 744.373 541.018L742.057 550.447C739.466 549.799 736.98 549.461 734.599 549.432C732.272 549.371 730.035 549.591 727.886 550.093C725.737 550.595 723.748 551.374 721.919 552.43C718.926 554.158 716.458 556.284 714.517 558.809C712.631 561.302 711.262 564.051 710.41 567.056C709.613 570.028 709.424 573.093 709.843 576.251C710.23 579.353 711.288 582.401 713.016 585.394C714.68 588.276 716.818 590.699 719.43 592.664C722.011 594.574 724.831 595.939 727.891 596.758C731.006 597.546 734.159 597.759 737.348 597.395C740.593 597 743.657 595.97 746.539 594.306C748.701 593.058 750.575 591.569 752.163 589.839C753.719 588.054 754.909 586.148 755.734 584.12C756.558 582.092 756.954 580.09 756.922 578.113C756.857 576.081 756.329 574.206 755.337 572.488L754.377 570.825L756.296 571.269L738.504 581.541L733.368 572.645L759.141 557.765C759.604 558.311 760.039 558.873 760.447 559.45C760.822 559.973 761.17 560.511 761.49 561.065C761.833 561.532 762.149 562.015 762.437 562.514C764.645 566.338 765.996 570.214 766.49 574.141C766.951 578.013 766.647 581.773 765.575 585.421C764.559 589.038 762.84 592.396 760.417 595.494C758.017 598.506 754.988 601.067 751.33 603.179ZM803.593 573.005C799.99 575.085 796.116 575.992 791.971 575.724C787.882 575.425 783.958 574.069 780.2 571.657C776.443 569.244 773.316 565.877 770.82 561.553C768.292 557.175 766.939 552.783 766.76 548.378C766.605 543.886 767.492 539.789 769.421 536.09C771.404 532.358 774.308 529.388 778.133 527.18C780.405 525.868 782.676 525 784.944 524.577C787.213 524.155 789.392 524.153 791.481 524.572C793.594 524.904 795.542 525.59 797.325 526.63C799.163 527.638 800.705 528.965 801.951 530.61L799.655 531.049L793.127 519.742L801.773 514.75L826.973 558.398L818.327 563.39L812.327 552.998L813.986 551.264C814.518 552.952 814.673 554.821 814.452 556.87C814.254 558.832 813.672 560.831 812.704 562.867C811.792 564.872 810.558 566.767 809.003 568.552C807.502 570.305 805.699 571.789 803.593 573.005ZM801.277 563.811C803.882 562.307 805.815 560.342 807.074 557.915C808.333 555.488 808.877 552.846 808.706 549.989C808.558 547.045 807.651 544.132 805.987 541.249C804.355 538.423 802.318 536.237 799.874 534.692C797.485 533.115 794.925 532.265 792.194 532.142C789.463 532.019 786.794 532.71 784.189 534.214C781.64 535.686 779.735 537.635 778.476 540.062C777.272 542.457 776.728 545.099 776.844 547.988C777.016 550.845 777.917 553.687 779.549 556.513C781.213 559.396 783.256 561.653 785.676 563.285C788.12 564.83 790.68 565.68 793.356 565.835C796.087 565.958 798.728 565.283 801.277 563.811ZM839.096 551.399L803.576 489.877L812.139 484.933L847.659 546.455L839.096 551.399ZM859.962 539.352L824.442 477.83L833.005 472.886L868.525 534.408L859.962 539.352ZM900.698 516.941C896.209 519.533 891.674 520.895 887.094 521.027C882.538 521.071 878.302 520.006 874.387 517.832C870.527 515.627 867.349 512.363 864.853 508.039C862.869 504.603 861.615 501.151 861.092 497.685C860.568 494.218 860.684 490.899 861.44 487.729C862.22 484.47 863.647 481.503 865.723 478.827C867.822 476.063 870.479 473.753 873.694 471.897C876.521 470.265 879.473 469.299 882.552 468.999C885.599 468.644 888.553 468.897 891.415 469.758C894.332 470.586 897.013 472.031 899.46 474.092C901.929 476.066 904.016 478.593 905.721 481.673L907.75 485.379L872.083 505.971L866.235 500.258L896.415 482.834L895.983 484.967L894.831 482.972C893.609 481.239 892.055 479.956 890.17 479.123C888.285 478.289 886.299 477.921 884.212 478.018C882.124 478.114 880.139 478.707 878.254 479.795C875.261 481.523 873.075 483.561 871.696 485.909C870.286 488.201 869.694 490.76 869.921 493.585C870.116 496.355 871.141 499.347 872.997 502.561C874.757 505.61 876.93 507.902 879.517 509.439C882.072 510.92 884.865 511.598 887.897 511.473C890.929 511.349 893.969 510.406 897.018 508.646C899.179 507.398 900.967 505.886 902.38 504.11C903.848 502.301 905.119 499.83 906.193 496.698L914.02 500.271C913.458 502.369 912.495 504.477 911.131 506.595C909.822 508.681 908.263 510.652 906.454 512.51C904.667 514.28 902.749 515.757 900.698 516.941ZM928.563 499.745L903.363 456.097L912.01 451.105L919.93 464.823L917.178 461.978C916.572 459.519 916.493 457.015 916.942 454.465C917.447 451.883 918.353 449.549 919.662 447.463C921.026 445.346 922.733 443.695 924.784 442.511C925.726 441.967 926.661 441.538 927.588 441.224C928.571 440.878 929.376 440.672 930.003 440.606L933.134 451.214C932.309 451.321 931.433 451.531 930.505 451.845C929.601 452.071 928.761 452.408 927.985 452.856C926.489 453.72 925.224 454.857 924.19 456.267C923.18 457.589 922.452 459.08 922.007 460.742C921.586 462.315 921.47 463.971 921.66 465.708C921.819 467.391 922.362 469.035 923.29 470.643L937.21 494.753L928.563 499.745ZM980.451 495.283L977.504 469.827L981.523 476.596L931.324 439.954L941.301 434.194L973.464 458.413C974.061 458.808 974.889 459.475 975.949 460.415C976.977 461.299 977.95 462.216 978.867 463.164L976.993 464.911C976.765 463.491 976.509 462.087 976.225 460.699C975.996 459.279 975.74 457.875 975.456 456.487L968.654 418.402L978.796 412.546L986.039 466.562L989.679 489.955L980.451 495.283ZM1085.67 410.148C1081.46 412.58 1077.09 414.104 1072.57 414.719C1068.01 415.279 1063.57 415.002 1059.23 413.886C1054.89 412.77 1050.9 410.859 1047.27 408.152C1043.66 405.358 1040.64 401.855 1038.21 397.642C1035.81 393.485 1034.32 389.174 1033.74 384.707C1033.21 380.208 1033.53 375.845 1034.71 371.616C1035.92 367.3 1037.91 363.338 1040.71 359.73C1043.5 356.121 1047.01 353.101 1051.22 350.669C1054.16 348.973 1057.25 347.741 1060.5 346.972C1063.81 346.171 1067.03 345.863 1070.17 346.048C1073.3 346.232 1076.15 346.879 1078.71 347.986L1076.4 357.416C1073.81 356.768 1071.32 356.43 1068.94 356.401C1066.61 356.34 1064.37 356.56 1062.23 357.062C1060.08 357.564 1058.09 358.343 1056.26 359.399C1053.27 361.127 1050.8 363.253 1048.86 365.778C1046.97 368.271 1045.6 371.02 1044.75 374.024C1043.95 376.997 1043.76 380.062 1044.18 383.22C1044.57 386.322 1045.63 389.369 1047.36 392.362C1049.02 395.244 1051.16 397.668 1053.77 399.633C1056.35 401.543 1059.17 402.907 1062.23 403.727C1065.35 404.515 1068.5 404.727 1071.69 404.364C1074.93 403.968 1078 402.939 1080.88 401.275C1083.04 400.027 1084.92 398.538 1086.5 396.808C1088.06 395.023 1089.25 393.116 1090.07 391.088C1090.9 389.061 1091.29 387.058 1091.26 385.082C1091.2 383.05 1090.67 381.175 1089.68 379.457L1088.72 377.794L1090.64 378.238L1072.84 388.51L1067.71 379.614L1093.48 364.734C1093.94 365.28 1094.38 365.841 1094.79 366.419C1095.16 366.941 1095.51 367.48 1095.83 368.034C1096.17 368.501 1096.49 368.983 1096.78 369.482C1098.98 373.307 1100.34 377.183 1100.83 381.11C1101.29 384.982 1100.99 388.742 1099.92 392.39C1098.9 396.007 1097.18 399.364 1094.76 402.463C1092.36 405.474 1089.33 408.036 1085.67 410.148ZM1137.93 379.974C1134.33 382.054 1130.46 382.96 1126.31 382.693C1122.22 382.394 1118.3 381.038 1114.54 378.626C1110.78 376.213 1107.66 372.845 1105.16 368.522C1102.63 364.144 1101.28 359.752 1101.1 355.347C1100.95 350.854 1101.83 346.758 1103.76 343.058C1105.74 339.326 1108.65 336.357 1112.47 334.149C1114.75 332.837 1117.02 331.969 1119.28 331.546C1121.55 331.123 1123.73 331.122 1125.82 331.541C1127.93 331.873 1129.88 332.559 1131.67 333.599C1133.5 334.607 1135.05 335.933 1136.29 337.579L1133.99 338.018L1127.47 326.711L1136.11 321.719L1161.31 365.367L1152.67 370.359L1146.67 359.966L1148.33 358.232C1148.86 359.921 1149.01 361.79 1148.79 363.839C1148.59 365.8 1148.01 367.799 1147.04 369.836C1146.13 371.841 1144.9 373.735 1143.34 375.52C1141.84 377.274 1140.04 378.758 1137.93 379.974ZM1135.62 370.78C1138.22 369.276 1140.15 367.311 1141.41 364.884C1142.67 362.457 1143.22 359.815 1143.05 356.958C1142.9 354.014 1141.99 351.1 1140.33 348.218C1138.7 345.391 1136.66 343.206 1134.21 341.661C1131.82 340.084 1129.27 339.234 1126.53 339.111C1123.8 338.988 1121.13 339.679 1118.53 341.183C1115.98 342.655 1114.08 344.604 1112.82 347.031C1111.61 349.426 1111.07 352.068 1111.18 354.957C1111.36 357.814 1112.26 360.655 1113.89 363.482C1115.55 366.364 1117.6 368.622 1120.02 370.254C1122.46 371.799 1125.02 372.649 1127.7 372.804C1130.43 372.927 1133.07 372.252 1135.62 370.78ZM1173.44 358.368L1137.92 296.845L1146.48 291.901L1182 353.424L1173.44 358.368ZM1194.3 346.321L1158.78 284.798L1167.34 279.854L1202.86 341.377L1194.3 346.321ZM1235.04 323.91C1230.55 326.502 1226.01 327.864 1221.43 327.995C1216.88 328.04 1212.64 326.975 1208.73 324.801C1204.87 322.596 1201.69 319.331 1199.19 315.008C1197.21 311.572 1195.96 308.12 1195.43 304.654C1194.91 301.187 1195.02 297.868 1195.78 294.697C1196.56 291.439 1197.99 288.472 1200.06 285.795C1202.16 283.031 1204.82 280.721 1208.03 278.865C1210.86 277.233 1213.81 276.268 1216.89 275.968C1219.94 275.613 1222.89 275.866 1225.75 276.726C1228.67 277.555 1231.35 279 1233.8 281.061C1236.27 283.034 1238.36 285.561 1240.06 288.642L1242.09 292.348L1206.42 312.94L1200.58 307.226L1230.75 289.802L1230.32 291.936L1229.17 289.94C1227.95 288.207 1226.4 286.924 1224.51 286.091C1222.63 285.258 1220.64 284.89 1218.55 284.987C1216.46 285.083 1214.48 285.676 1212.59 286.764C1209.6 288.492 1207.42 290.53 1206.04 292.877C1204.63 295.17 1204.03 297.729 1204.26 300.554C1204.46 303.323 1205.48 306.315 1207.34 309.53C1209.1 312.579 1211.27 314.871 1213.86 316.407C1216.41 317.888 1219.21 318.567 1222.24 318.442C1225.27 318.317 1228.31 317.375 1231.36 315.615C1233.52 314.367 1235.31 312.855 1236.72 311.078C1238.19 309.27 1239.46 306.799 1240.53 303.667L1248.36 307.24C1247.8 309.338 1246.83 311.446 1245.47 313.564C1244.16 315.649 1242.6 317.621 1240.79 319.479C1239.01 321.249 1237.09 322.726 1235.04 323.91ZM1262.9 306.714L1237.7 263.066L1246.35 258.074L1254.27 271.792L1251.52 268.946C1250.91 266.488 1250.83 263.984 1251.28 261.434C1251.79 258.852 1252.69 256.518 1254 254.432C1255.37 252.314 1257.07 250.664 1259.12 249.48C1260.07 248.936 1261 248.507 1261.93 248.193C1262.91 247.847 1263.72 247.641 1264.34 247.575L1267.47 258.182C1266.65 258.289 1265.77 258.5 1264.85 258.813C1263.94 259.04 1263.1 259.377 1262.33 259.825C1260.83 260.689 1259.56 261.826 1258.53 263.235C1257.52 264.558 1256.79 266.049 1256.35 267.71C1255.93 269.284 1255.81 270.94 1256 272.677C1256.16 274.359 1256.7 276.004 1257.63 277.612L1271.55 301.722L1262.9 306.714ZM1314.79 302.252L1311.84 276.795L1315.86 283.565L1265.66 246.923L1275.64 241.163L1307.8 265.382C1308.4 265.776 1309.23 266.443 1310.29 267.383C1311.32 268.268 1312.29 269.184 1313.21 270.133L1311.33 271.88C1311.1 270.46 1310.85 269.056 1310.56 267.668C1310.34 266.248 1310.08 264.844 1309.8 263.456L1302.99 225.371L1313.14 219.515L1320.38 273.53L1324.02 296.924L1314.79 302.252ZM1396.71 230.57C1392.5 233.002 1388.13 234.526 1383.61 235.141C1379.05 235.701 1374.61 235.423 1370.27 234.308C1365.93 233.192 1361.94 231.28 1358.31 228.574C1354.7 225.78 1351.68 222.276 1349.25 218.064C1346.85 213.907 1345.36 209.595 1344.77 205.129C1344.25 200.63 1344.57 196.267 1345.75 192.038C1346.95 187.722 1348.95 183.76 1351.75 180.152C1354.54 176.543 1358.04 173.523 1362.26 171.091C1365.19 169.395 1368.29 168.163 1371.54 167.394C1374.85 166.593 1378.07 166.285 1381.2 166.47C1384.34 166.654 1387.19 167.3 1389.75 168.408L1387.44 177.837C1384.84 177.19 1382.36 176.852 1379.98 176.823C1377.65 176.762 1375.41 176.982 1373.26 177.484C1371.11 177.986 1369.13 178.764 1367.3 179.82C1364.3 181.548 1361.84 183.675 1359.9 186.2C1358.01 188.693 1356.64 191.442 1355.79 194.446C1354.99 197.419 1354.8 200.484 1355.22 203.641C1355.61 206.744 1356.67 209.791 1358.39 212.784C1360.06 215.666 1362.2 218.09 1364.81 220.055C1367.39 221.964 1370.21 223.329 1373.27 224.149C1376.38 224.937 1379.54 225.149 1382.73 224.786C1385.97 224.39 1389.04 223.36 1391.92 221.696C1394.08 220.448 1395.95 218.96 1397.54 217.23C1399.1 215.445 1400.29 213.538 1401.11 211.51C1401.94 209.482 1402.33 207.48 1402.3 205.504C1402.24 203.472 1401.71 201.597 1400.72 199.879L1399.76 198.216L1401.67 198.66L1383.88 208.932L1378.75 200.036L1404.52 185.156C1404.98 185.702 1405.42 186.263 1405.82 186.841C1406.2 187.363 1406.55 187.901 1406.87 188.456C1407.21 188.923 1407.53 189.405 1407.82 189.904C1410.02 193.729 1411.37 197.604 1411.87 201.532C1412.33 205.403 1412.02 209.164 1410.95 212.812C1409.94 216.429 1408.22 219.786 1405.79 222.885C1403.4 225.896 1400.37 228.458 1396.71 230.57ZM1448.97 200.396C1445.37 202.476 1441.49 203.382 1437.35 203.115C1433.26 202.816 1429.34 201.46 1425.58 199.047C1421.82 196.635 1418.69 193.267 1416.2 188.944C1413.67 184.565 1412.32 180.174 1412.14 175.769C1411.98 171.276 1412.87 167.18 1414.8 163.48C1416.78 159.748 1419.69 156.778 1423.51 154.57C1425.78 153.258 1428.05 152.391 1430.32 151.968C1432.59 151.545 1434.77 151.543 1436.86 151.963C1438.97 152.295 1440.92 152.981 1442.7 154.021C1444.54 155.028 1446.08 156.355 1447.33 158.001L1445.03 158.44L1438.51 147.133L1447.15 142.141L1472.35 185.789L1463.71 190.781L1457.71 180.388L1459.36 178.654C1459.9 180.343 1460.05 182.212 1459.83 184.261C1459.63 186.222 1459.05 188.221 1458.08 190.258C1457.17 192.262 1455.94 194.157 1454.38 195.942C1452.88 197.695 1451.08 199.18 1448.97 200.396ZM1446.66 191.202C1449.26 189.698 1451.19 187.732 1452.45 185.306C1453.71 182.879 1454.26 180.237 1454.08 177.38C1453.94 174.435 1453.03 171.522 1451.37 168.64C1449.73 165.813 1447.7 163.627 1445.25 162.082C1442.86 160.505 1440.3 159.656 1437.57 159.533C1434.84 159.41 1432.17 160.101 1429.57 161.605C1427.02 163.077 1425.11 165.026 1423.85 167.453C1422.65 169.848 1422.11 172.489 1422.22 175.378C1422.39 178.235 1423.3 181.077 1424.93 183.904C1426.59 186.786 1428.63 189.043 1431.05 190.676C1433.5 192.221 1436.06 193.071 1438.73 193.226C1441.47 193.348 1444.11 192.674 1446.66 191.202ZM1484.47 178.79L1448.95 117.267L1457.52 112.323L1493.04 173.846L1484.47 178.79ZM1505.34 166.743L1469.82 105.22L1478.38 100.276L1513.9 161.799L1505.34 166.743ZM1546.08 144.332C1541.59 146.924 1537.05 148.286 1532.47 148.417C1527.92 148.461 1523.68 147.397 1519.77 145.223C1515.91 143.018 1512.73 139.753 1510.23 135.43C1508.25 131.994 1506.99 128.542 1506.47 125.075C1505.95 121.609 1506.06 118.29 1506.82 115.119C1507.6 111.861 1509.03 108.894 1511.1 106.217C1513.2 103.453 1515.86 101.143 1519.07 99.2873C1521.9 97.6553 1524.85 96.6895 1527.93 96.39C1530.98 96.0351 1533.93 96.2879 1536.79 97.1484C1539.71 97.9768 1542.39 99.4216 1544.84 101.483C1547.31 103.456 1549.39 105.983 1551.1 109.064L1553.13 112.77L1517.46 133.362L1511.61 127.648L1541.79 110.224L1541.36 112.358L1540.21 110.362C1538.99 108.629 1537.43 107.346 1535.55 106.513C1533.66 105.68 1531.68 105.312 1529.59 105.408C1527.5 105.505 1525.52 106.097 1523.63 107.185C1520.64 108.913 1518.45 110.951 1517.07 113.299C1515.66 115.592 1515.07 118.151 1515.3 120.976C1515.49 123.745 1516.52 126.737 1518.38 129.952C1520.14 133 1522.31 135.293 1524.9 136.829C1527.45 138.31 1530.24 138.989 1533.28 138.864C1536.31 138.739 1539.35 137.797 1542.4 136.037C1544.56 134.789 1546.34 133.277 1547.76 131.5C1549.23 129.692 1550.5 127.221 1551.57 124.089L1559.4 127.662C1558.84 129.76 1557.87 131.868 1556.51 133.986C1555.2 136.071 1553.64 138.043 1551.83 139.901C1550.05 141.671 1548.13 143.148 1546.08 144.332ZM1573.94 127.136L1548.74 83.4879L1557.39 78.4959L1565.31 92.2138L1562.56 89.3682C1561.95 86.9101 1561.87 84.4059 1562.32 81.8557C1562.83 79.2735 1563.73 76.9396 1565.04 74.8539C1566.4 72.7362 1568.11 71.0854 1570.16 69.9014C1571.1 69.3574 1572.04 68.9285 1572.97 68.6148C1573.95 68.2691 1574.75 68.0631 1575.38 67.9968L1578.51 78.6043C1577.69 78.7112 1576.81 78.9215 1575.88 79.2352C1574.98 79.4615 1574.14 79.7986 1573.36 80.2466C1571.87 81.1106 1570.6 82.2475 1569.57 83.6572C1568.56 84.9794 1567.83 86.4711 1567.39 88.1322C1566.96 89.7058 1566.85 91.3615 1567.04 93.0991C1567.2 94.7813 1567.74 96.4261 1568.67 98.0335L1582.59 122.144L1573.94 127.136ZM1625.83 122.674L1622.88 97.2172L1626.9 103.987L1576.7 67.3446L1586.68 61.5846L1618.84 85.804C1619.44 86.1982 1620.27 86.8653 1621.33 87.8053C1622.36 88.6898 1623.33 89.6063 1624.25 90.5548L1622.37 92.3017C1622.14 90.8817 1621.89 89.4778 1621.6 88.0898C1621.37 86.6699 1621.12 85.266 1620.83 83.878L1614.03 45.7926L1624.17 39.9366L1631.42 93.9522L1635.06 117.346L1625.83 122.674Z" fill="#FFE0C4"/>
</svg>
